<svg viewBox="0 0 701 742" fill="none" xmlns="http://www.w3.org/2000/svg">
<path d="M298.879 741.121C300.05 742.293 301.95 742.293 303.121 741.121L322.213 722.029C323.385 720.858 323.385 718.958 322.213 717.787C321.042 716.615 319.142 716.615 317.97 717.787L301 734.757L284.029 717.787C282.858 716.615 280.958 716.615 279.787 717.787C278.615 718.958 278.615 720.858 279.787 722.029L298.879 741.121ZM298 339L298 739L304 739L304 339L298 339Z" fill="black"/>
<path d="M700.121 341.121C701.293 339.95 701.293 338.05 700.121 336.879L681.029 317.787C679.858 316.615 677.958 316.615 676.787 317.787C675.615 318.958 675.615 320.858 676.787 322.029L693.757 339L676.787 355.971C675.615 357.142 675.615 359.042 676.787 360.213C677.958 361.385 679.858 361.385 681.029 360.213L700.121 341.121ZM298 342H698V336H298V342Z" fill="black"/>
<circle cx="301" cy="339" r="14" fill="#37DD7A"/>
<path d="M18 53C16.3432 53 15 54.3431 15 56V83C15 84.6568 16.3432 86 18 86C19.6569 86 21 84.6568 21 83V59H45C46.6569 59 48 57.6568 48 56C48 54.3431 46.6569 53 45 53H18ZM302.964 336.721L20.1213 53.8787L15.8787 58.1213L298.721 340.964L302.964 336.721Z" fill="black"/>
<path d="M315.94 322.82C314.74 321 313.81 318.89 313.15 316.49C312.51 314.09 312.19 311.52 312.19 308.78C312.19 306.04 312.51 303.47 313.15 301.07C313.81 298.65 314.74 296.54 315.94 294.74H320.41C319.15 296.96 318.23 299.22 317.65 301.52C317.07 303.8 316.78 306.22 316.78 308.78C316.78 311.34 317.07 313.77 317.65 316.07C318.23 318.35 319.15 320.6 320.41 322.82H315.94ZM330.893 317.36C329.153 317.36 327.603 316.93 326.243 316.07C324.883 315.21 323.813 313.97 323.033 312.35C322.273 310.71 321.893 308.76 321.893 306.5C321.893 304.24 322.273 302.3 323.033 300.68C323.813 299.04 324.883 297.79 326.243 296.93C327.603 296.07 329.153 295.64 330.893 295.64C332.633 295.64 334.183 296.07 335.543 296.93C336.903 297.79 337.963 299.04 338.723 300.68C339.503 302.3 339.893 304.24 339.893 306.5C339.893 308.76 339.503 310.71 338.723 312.35C337.963 313.97 336.903 315.21 335.543 316.07C334.183 316.93 332.633 317.36 330.893 317.36ZM330.893 313.25C332.173 313.25 333.173 312.7 333.893 311.6C334.633 310.5 335.003 308.8 335.003 306.5C335.003 304.2 334.633 302.5 333.893 301.4C333.173 300.3 332.173 299.75 330.893 299.75C329.633 299.75 328.633 300.3 327.893 301.4C327.173 302.5 326.813 304.2 326.813 306.5C326.813 308.8 327.173 310.5 327.893 311.6C328.633 312.7 329.633 313.25 330.893 313.25ZM344.663 311.42C345.503 311.42 346.193 311.69 346.733 312.23C347.273 312.75 347.543 313.44 347.543 314.3C347.543 314.7 347.493 315.1 347.393 315.5C347.293 315.9 347.073 316.5 346.733 317.3L345.023 321.62H342.053L343.373 316.85C342.873 316.65 342.473 316.33 342.173 315.89C341.893 315.43 341.753 314.9 341.753 314.3C341.753 313.44 342.023 312.75 342.563 312.23C343.123 311.69 343.823 311.42 344.663 311.42ZM367.221 317.36C365.481 317.36 363.931 316.93 362.571 316.07C361.211 315.21 360.141 313.97 359.361 312.35C358.601 310.71 358.221 308.76 358.221 306.5C358.221 304.24 358.601 302.3 359.361 300.68C360.141 299.04 361.211 297.79 362.571 296.93C363.931 296.07 365.481 295.64 367.221 295.64C368.961 295.64 370.511 296.07 371.871 296.93C373.231 297.79 374.291 299.04 375.051 300.68C375.831 302.3 376.221 304.24 376.221 306.5C376.221 308.76 375.831 310.71 375.051 312.35C374.291 313.97 373.231 315.21 371.871 316.07C370.511 316.93 368.961 317.36 367.221 317.36ZM367.221 313.25C368.501 313.25 369.501 312.7 370.221 311.6C370.961 310.5 371.331 308.8 371.331 306.5C371.331 304.2 370.961 302.5 370.221 301.4C369.501 300.3 368.501 299.75 367.221 299.75C365.961 299.75 364.961 300.3 364.221 301.4C363.501 302.5 363.141 304.2 363.141 306.5C363.141 308.8 363.501 310.5 364.221 311.6C364.961 312.7 365.961 313.25 367.221 313.25ZM380.991 311.42C381.831 311.42 382.521 311.69 383.061 312.23C383.601 312.75 383.871 313.44 383.871 314.3C383.871 314.7 383.821 315.1 383.721 315.5C383.621 315.9 383.401 316.5 383.061 317.3L381.351 321.62H378.381L379.701 316.85C379.201 316.65 378.801 316.33 378.501 315.89C378.221 315.43 378.081 314.9 378.081 314.3C378.081 313.44 378.351 312.75 378.891 312.23C379.451 311.69 380.151 311.42 380.991 311.42ZM403.549 317.36C401.809 317.36 400.259 316.93 398.899 316.07C397.539 315.21 396.469 313.97 395.689 312.35C394.929 310.71 394.549 308.76 394.549 306.5C394.549 304.24 394.929 302.3 395.689 300.68C396.469 299.04 397.539 297.79 398.899 296.93C400.259 296.07 401.809 295.64 403.549 295.64C405.289 295.64 406.839 296.07 408.199 296.93C409.559 297.79 410.619 299.04 411.379 300.68C412.159 302.3 412.549 304.24 412.549 306.5C412.549 308.76 412.159 310.71 411.379 312.35C410.619 313.97 409.559 315.21 408.199 316.07C406.839 316.93 405.289 317.36 403.549 317.36ZM403.549 313.25C404.829 313.25 405.829 312.7 406.549 311.6C407.289 310.5 407.659 308.8 407.659 306.5C407.659 304.2 407.289 302.5 406.549 301.4C405.829 300.3 404.829 299.75 403.549 299.75C402.289 299.75 401.289 300.3 400.549 301.4C399.829 302.5 399.469 304.2 399.469 306.5C399.469 308.8 399.829 310.5 400.549 311.6C401.289 312.7 402.289 313.25 403.549 313.25ZM414.04 322.82C415.3 320.6 416.22 318.35 416.8 316.07C417.4 313.77 417.7 311.34 417.7 308.78C417.7 306.22 417.4 303.8 416.8 301.52C416.22 299.22 415.3 296.96 414.04 294.74H418.51C419.73 296.52 420.66 298.62 421.3 301.04C421.96 303.44 422.29 306.02 422.29 308.78C422.29 311.54 421.97 314.12 421.33 316.52C420.69 318.9 419.75 321 418.51 322.82H414.04Z" fill="black"/>
<path d="M656.864 320L650.78 311.252L644.804 320H638.108L647.432 307.184L638.576 294.8H645.2L650.996 302.972L656.684 294.8H662.984L654.2 306.968L663.596 320H656.864Z" fill="black"/>
<path d="M42.9349 22.5199L46.295 25.8801L30.7161 41.4591L28.0432 38.7862L26.0322 17.2251L16.4608 26.7965L13.1006 23.4363L28.0941 8.44286L30.767 11.1157L32.8034 32.6514L42.9349 22.5199Z" fill="black"/>
<path d="M272.084 693.072V702H266.252V693L256.496 676.8H262.688L269.42 687.996L276.152 676.8H281.876L272.084 693.072Z" fill="black"/>
</svg>
