<svg xmlns="http://www.w3.org/2000/svg"><symbol id="sprite-main-logo" viewBox="0 0 795 796" fill="none"><path d="M359.398 471L332.803 432.585H331.227H303.45V471H271.536V333.1H331.227C343.441 333.1 354.013 335.136 362.944 339.207C372.006 343.278 378.966 349.057 383.826 356.543C388.685 364.029 391.115 372.894 391.115 383.138C391.115 393.382 388.619 402.247 383.629 409.733C378.769 417.088 371.809 422.735 362.747 426.675L393.676 471H359.398ZM358.807 383.138C358.807 375.389 356.311 369.479 351.321 365.408C346.33 361.205 339.041 359.104 329.454 359.104H303.45V407.172H329.454C339.041 407.172 346.33 405.071 351.321 400.868C356.311 396.665 358.807 390.755 358.807 383.138ZM452.891 359.104H408.763V333.1H528.933V359.104H484.805V471H452.891V359.104Z" fill="white"/>
    <path d="M488.371 148.042C541.157 167.254 586.506 202.685 617.918 249.255C649.33 295.825 665.192 351.144 663.232 407.283C661.272 463.423 641.589 517.501 607.005 561.766C572.421 606.031 524.711 638.212 470.713 653.696" stroke="#D73A46" stroke-width="30"/>
    <path d="M306.417 647.958C253.631 628.746 208.282 593.315 176.87 546.745C145.458 500.175 129.596 444.856 131.556 388.717C133.516 332.577 153.199 278.5 187.783 234.234C222.367 189.969 270.077 157.788 324.074 142.304" stroke="#D73A46" stroke-width="30"/>
    <path d="M595.669 469.166C580.429 511.038 552.325 547.01 515.384 571.927C478.443 596.844 434.562 609.427 390.03 607.871C345.498 606.316 302.602 590.703 267.489 563.27C232.376 535.837 206.85 497.992 194.568 455.159" stroke="#4B4E96" stroke-width="30"/>
    <path d="M199.119 324.834C214.359 282.962 242.463 246.99 279.404 222.073C316.345 197.156 360.226 184.573 404.758 186.128C449.289 187.684 492.186 203.297 527.299 230.73C562.411 258.163 587.938 296.008 600.22 338.841" stroke="#4B4E96" stroke-width="30"/></symbol><symbol id="sprite-play-icon" viewBox="0 0 52 58">
    <path fill-rule="evenodd" clip-rule="evenodd" d="M47 29L26 17L5 5V53L26 41L47 29Z" fill="#FFF7F7" stroke="#FFF7F7" stroke-width="10" stroke-linejoin="round"/>
</symbol><symbol id="sprite-reset-icon" viewBox="0 0 68 68">
    <path fill-rule="evenodd" clip-rule="evenodd" d="M18.9367 5.11836C23.497 2.63093 28.7483 1.38721 33.9995 1.38721C52.1025 1.38721 66.7508 16.0355 66.7508 34.0003C66.7508 52.1033 52.1025 66.7515 33.9995 66.7515C12.1654 66.7515 -3.72661 45.3319 2.90656 24.3269C4.15027 20.1812 10.2307 22.1159 8.98696 26.1234C3.7357 43.1209 16.4493 60.2566 33.9995 60.2566C48.5096 60.2566 60.2558 48.5103 60.2558 34.0003C60.2558 14.7917 39.9417 1.93997 22.3915 10.5078L23.7734 12.5807C24.188 13.1334 23.9116 13.9626 23.3588 14.3772C22.6679 14.7917 12.8563 15.2063 11.198 15.2063C10.2307 15.3445 9.53972 14.239 9.95429 13.2716L15.0674 3.0455C15.4819 2.49273 16.3111 2.21635 17.002 2.49273C17.5548 2.76912 18.5221 4.5656 18.9367 5.11836Z" fill="#FFF7F7" stroke="#FFF7F7" stroke-width="2"/>
</symbol>
<symbol id="sprite-arrow" viewBox="0 0 54 51" fill="none">
    <path d="M28.5825 6L48 25.4175M48 25.4175L28.5825 44.8349M48 25.4175H6" stroke="white" stroke-width="12" stroke-linecap="round" stroke-linejoin="round"/>
</symbol>
<symbol id="sprite-smile" viewBox="0 0 310 310" fill="none">
    <ellipse cx="219" cy="108" rx="26" ry="43.0002" fill="white"/>
    <ellipse cx="218.5" cy="108.5" rx="16.5" ry="28.5" fill="black"/>
    <ellipse cx="91" cy="108" rx="26" ry="43" fill="white"/>
    <ellipse cx="90.5" cy="108.5" rx="16.5" ry="28.5" fill="black"/>
    <path d="M66.313 200.039C66.313 200.039 94.8881 246 155.4 246C215.912 246 245.608 200.039 245.608 200.039" stroke="black" stroke-width="10" stroke-linecap="round" stroke-linejoin="round"/>
    <path d="M252.572 212.738C251.3 206.608 249.679 202.321 246.798 198.943C244.025 195.69 240.086 193.281 234.169 190.88" stroke="black" stroke-width="10" stroke-linecap="round" stroke-linejoin="round"/>
    <path d="M75.8535 190.867C70.0127 193.184 66.0544 195.524 63.2129 198.942C60.4773 202.232 58.7768 206.522 57.4281 212.751" stroke="black" stroke-width="10" stroke-linecap="round" stroke-linejoin="round"/>
</symbol>
</svg>